<svg width="209" height="74" viewBox="0 0 209 74" fill="none" xmlns="http://www.w3.org/2000/svg">
<g clip-path="url(#clip0_48_47)">
<path d="M207.301 53.9503C207.42 53.8169 207.476 53.6554 207.476 53.4659V53.3044C207.476 53.1991 207.462 53.1008 207.427 53.0166C207.392 52.9183 207.329 52.8411 207.251 52.7709C207.174 52.7077 207.076 52.6586 206.964 52.6235C206.858 52.5884 206.725 52.5743 206.577 52.5743H204.443V55.235H205.229V54.203H206.163L206.704 55.235H207.567L206.999 54.1539C207.125 54.1117 207.23 54.0486 207.308 53.9643L207.301 53.9503ZM206.69 53.4869C206.69 53.4869 206.676 53.508 206.577 53.508H205.229V53.2623H206.577C206.676 53.2623 206.69 53.2834 206.69 53.2974V53.4869ZM205.959 50.8965C204.281 50.8965 202.919 52.2654 202.919 53.9362C202.919 55.6141 204.288 56.976 205.966 56.976C207.652 56.976 209.007 55.6141 209.007 53.9362C209.007 52.2654 207.645 50.9035 205.966 50.9035L205.959 50.8965ZM205.959 56.2178C204.702 56.2178 203.677 55.1999 203.677 53.9362C203.677 52.6796 204.695 51.6547 205.959 51.6547C207.209 51.6547 208.242 52.6796 208.242 53.9292C208.242 55.1858 207.209 56.2108 205.959 56.2108V56.2178Z" fill="white"/>
<path d="M24.5276 70.4127H25.2087V73.1366C25.2087 73.2629 25.1946 73.3823 25.1736 73.4876C25.1525 73.5929 25.0963 73.6841 25.0261 73.7614C24.9559 73.8386 24.8506 73.8947 24.7242 73.9369C24.5978 73.979 24.4292 74.0001 24.2256 74.0001H21.8522C21.6486 74.0001 21.473 73.979 21.3326 73.9369C21.1921 73.8947 21.0728 73.8316 20.9815 73.7614C20.8902 73.6841 20.827 73.5929 20.7849 73.4876C20.7427 73.3823 20.7217 73.2629 20.7217 73.1366V70.4127H21.4028V73.1436C21.4028 73.3612 21.5503 73.4735 21.8522 73.4735H24.0782C24.3801 73.4735 24.5276 73.3612 24.5276 73.1436V70.4127ZM31.6688 70.9252C31.711 71.0305 31.732 71.1498 31.732 71.2762V71.5289C31.732 71.7606 31.6618 71.9501 31.5284 72.1046C31.395 72.259 31.1633 72.3503 30.8473 72.3854L31.6969 74.0001H30.9737L30.131 72.3994H28.2351V74.0001H27.554V70.4127H30.6015C30.8051 70.4127 30.9807 70.4338 31.1211 70.4759C31.2616 70.518 31.3809 70.5812 31.4722 70.6514C31.5635 70.7286 31.6267 70.8199 31.6688 70.9252ZM31.0509 71.2762C31.0509 71.0516 30.9034 70.9463 30.6015 70.9463H28.2281V71.8729H30.6015C30.9034 71.8729 31.0509 71.7606 31.0509 71.543V71.2762ZM37.9113 72.3082C38.0026 72.3994 38.0447 72.5328 38.0447 72.7013V73.2278C38.0447 73.3331 38.0237 73.4244 37.9885 73.5227C37.9534 73.6139 37.8902 73.6982 37.806 73.7684C37.7217 73.8386 37.6023 73.8947 37.4549 73.9369C37.3074 73.979 37.1249 74.0001 36.9072 74.0001H33.972V70.4127H36.8931C37.0897 70.4127 37.2583 70.4338 37.3987 70.4689C37.5391 70.504 37.6515 70.5531 37.7428 70.6233C37.827 70.6865 37.8902 70.7708 37.9324 70.869C37.9745 70.9673 37.9956 71.0726 37.9956 71.192V71.5219C37.9956 71.6764 37.9605 71.8097 37.8832 71.915C37.806 72.0204 37.7006 72.0906 37.5743 72.1186C37.7077 72.1537 37.82 72.2169 37.9113 72.3082ZM34.6531 71.8729H36.9001C37.0617 71.8729 37.174 71.8519 37.2302 71.8097C37.2934 71.7676 37.3215 71.6974 37.3215 71.5921V71.22C37.3215 71.1218 37.2934 71.0516 37.2302 71.0024C37.167 70.9603 37.0617 70.9392 36.9001 70.9392H34.6531V71.8729ZM37.3706 72.7083C37.3706 72.596 37.3285 72.5188 37.2442 72.4696C37.16 72.4205 37.0476 72.3994 36.9142 72.3994H34.6602V73.4665H36.9142C37.0476 73.4665 37.16 73.4384 37.2442 73.3893C37.3285 73.3401 37.3706 73.2419 37.3706 73.0944V72.7083ZM42.2228 70.4127L39.8353 74.0001H40.5937L42.4755 71.1077L44.3293 74.0001H45.0947L42.7213 70.4127H42.2298H42.2228ZM51.281 73.0804L47.7069 70.4127H47.117V74.0001H47.7069V71.206L51.5408 74.0001H51.8709V70.4127H51.281V73.0804ZM60.901 70.9252C60.9432 71.0305 60.9642 71.1498 60.9642 71.2762V71.5289C60.9642 71.7606 60.894 71.9501 60.7606 72.1046C60.6272 72.259 60.3954 72.3503 60.0795 72.3854L60.9291 74.0001H60.2058L59.3632 72.3994H57.4673V74.0001H56.7862V70.4127H59.8337C60.0373 70.4127 60.2129 70.4338 60.3533 70.4759C60.4937 70.518 60.6131 70.5812 60.7044 70.6514C60.7957 70.7286 60.8589 70.8199 60.901 70.9252ZM60.2831 71.2762C60.2831 71.0516 60.1356 70.9463 59.8337 70.9463H57.4603V71.8729H59.8337C60.1356 71.8729 60.2831 71.7606 60.2831 71.543V71.2762ZM63.2393 74.0001H63.9204V70.4127H63.2393V74.0001ZM70.8581 71.0094C70.9002 71.1428 70.9213 71.2973 70.9213 71.4728V72.9751C70.9213 73.1436 70.9002 73.291 70.8581 73.4244C70.816 73.5508 70.7457 73.6561 70.6404 73.7403C70.5351 73.8245 70.4017 73.8877 70.2331 73.9369C70.0646 73.979 69.854 74.0001 69.5941 74.0001H66.3009V70.4127H69.5941C69.8469 70.4127 70.0646 70.4338 70.2331 70.4759C70.4017 70.518 70.5421 70.5882 70.6404 70.6725C70.7387 70.7567 70.816 70.869 70.8581 71.0024V71.0094ZM70.2402 71.4728C70.2402 71.3675 70.2331 71.2832 70.2121 71.22C70.191 71.1498 70.1559 71.1007 70.1067 71.0586C70.0576 71.0165 69.9944 70.9884 69.9101 70.9743C69.8259 70.9603 69.7205 70.9463 69.5941 70.9463H66.982V73.4735H69.5941C69.7205 73.4735 69.8259 73.4665 69.9101 73.4455C69.9944 73.4244 70.0576 73.4033 70.1067 73.3612C70.1559 73.3261 70.191 73.2699 70.2121 73.2068C70.2331 73.1436 70.2402 73.0593 70.2402 72.9681V71.4658V71.4728ZM73.2806 74.0001H73.9618V70.4127H73.2806V74.0001ZM80.5132 73.0804L76.9391 70.4127H76.3492V74.0001H76.9391V71.206L80.766 74.0001H81.096V70.4127H80.5062V73.0804H80.5132ZM86.9102 73.2348C86.9102 73.3893 86.7065 73.4665 86.3063 73.4665H84.7193C84.3191 73.4665 84.1154 73.3823 84.1154 73.2208V71.1779C84.1154 71.0165 84.3191 70.9322 84.7193 70.9322H87.5281V70.3987H84.7193C83.8627 70.3987 83.4413 70.6584 83.4413 71.1709V73.2138C83.4413 73.7333 83.8697 73.986 84.7193 73.986H86.3063C87.1629 73.986 87.5843 73.7333 87.5843 73.2208V72.0274H86.9031V73.2208L86.9102 73.2348ZM95.9122 73.2348C95.9122 73.3893 95.7086 73.4665 95.3083 73.4665H93.7214C93.3212 73.4665 93.1175 73.3823 93.1175 73.2208V71.1779C93.1175 71.0165 93.3212 70.9322 93.7214 70.9322H96.5302V70.3987H93.7214C92.8647 70.3987 92.4434 70.6584 92.4434 71.1709V73.2138C92.4434 73.7333 92.8718 73.986 93.7214 73.986H95.3083C96.165 73.986 96.5863 73.7333 96.5863 73.2208V72.0274H95.9052V73.2208L95.9122 73.2348ZM98.9176 74.0001H102.611V73.4665H99.5987V72.3643H102.457V71.8308H99.5987V70.9322H102.611V70.3987H98.9176V73.986V74.0001ZM106.944 70.4127L104.556 74.0001H105.315L107.196 71.1077L109.05 74.0001H109.816L107.442 70.4127H106.951H106.944ZM115.812 72.1116C115.679 72.2661 115.447 72.3573 115.131 72.3924L115.981 74.0071H115.258L114.415 72.4065H112.526V74.0071H111.845V70.4197H114.892C115.096 70.4197 115.272 70.4408 115.412 70.4829C115.553 70.525 115.672 70.5882 115.763 70.6584C115.854 70.7286 115.918 70.8269 115.96 70.9322C116.002 71.0375 116.023 71.1569 116.023 71.2832V71.536C116.023 71.7676 115.953 71.9572 115.819 72.1116H115.812ZM115.342 71.2762C115.342 71.0516 115.194 70.9463 114.892 70.9463H112.519V71.8729H114.892C115.194 71.8729 115.342 71.7606 115.342 71.543V71.2762Z" fill="white"/>
<path d="M158.941 56.4846V63.926C158.941 64.8106 158.344 65.2458 157.15 65.2458H150.416C149.223 65.2458 148.626 64.8035 148.626 63.926V56.4846C148.626 55.6071 149.223 55.1648 150.416 55.1648H157.15C158.344 55.1648 158.941 55.6071 158.941 56.4846ZM177.17 61.0337C176.833 60.8512 176.39 60.7599 175.85 60.7599H168.631C168.09 60.7599 167.648 60.8512 167.311 61.0337C166.974 61.2162 166.805 61.5321 166.805 61.9814V63.7716C166.805 64.3542 166.974 64.7474 167.311 64.951C167.648 65.1545 168.09 65.2528 168.631 65.2528H175.85C176.39 65.2528 176.833 65.1545 177.17 64.951C177.507 64.7474 177.675 64.3542 177.675 63.7716V61.9814C177.675 61.5321 177.507 61.2162 177.17 61.0337ZM201.086 2.82231e-06H145.831C144.434 2.82231e-06 135.783 -0.0421189 135.783 10.1653V31.1065L143.977 20.7447L138.943 20.4569H144.209L146.793 17.1855L139.778 16.7362H147.151L148.822 14.6231L144.413 38.218L144.23 39.0534H144.251L144.195 39.3553H144.16L135.776 44.459V65.2809H140.649V55.0595L139.652 56.1968H136.801L139.589 53.0447H143.352V65.2739H146.147C145.993 64.8597 145.908 64.4034 145.908 63.9049V56.5056C145.908 55.9932 145.993 55.5228 146.154 55.1016C146.316 54.6804 146.575 54.3153 146.94 54.0135C147.299 53.7116 147.762 53.4729 148.331 53.3044C148.9 53.136 149.595 53.0517 150.402 53.0517H157.136C157.951 53.0517 158.639 53.136 159.208 53.3044C159.777 53.4729 160.24 53.7116 160.598 54.0135C160.956 54.3153 161.216 54.6804 161.385 55.1016C161.546 55.5228 161.63 55.9932 161.63 56.5056V63.9049C161.63 64.4104 161.553 64.8667 161.392 65.2739H164.235C164.13 64.951 164.067 64.614 164.067 64.27V61.9323C164.067 61.2373 164.242 60.7178 164.594 60.3527C164.945 59.9947 165.394 59.742 165.935 59.5875C165.422 59.4822 165.008 59.2084 164.706 58.7872C164.404 58.359 164.249 57.8325 164.249 57.2147V56.1336C164.249 55.6562 164.334 55.228 164.495 54.8419C164.657 54.4558 164.91 54.1328 165.261 53.8661C165.605 53.5993 166.054 53.3957 166.616 53.2553C167.171 53.1149 167.852 53.0447 168.652 53.0447H175.793C176.58 53.0447 177.254 53.1149 177.816 53.2553C178.378 53.3957 178.834 53.5993 179.178 53.8661C179.522 54.1328 179.775 54.4558 179.943 54.8419C180.105 55.228 180.189 55.6562 180.189 56.1336V57.2147C180.189 57.8395 180.035 58.366 179.733 58.7872C179.431 59.2155 179.017 59.4822 178.504 59.5875C179.045 59.7349 179.494 59.9877 179.845 60.3527C180.196 60.7108 180.372 61.2373 180.372 61.9323V64.27C180.372 64.621 180.309 64.951 180.203 65.2739H183.047C182.893 64.8597 182.808 64.4034 182.808 63.9049V56.5056C182.808 55.9932 182.893 55.5228 183.054 55.1016C183.216 54.6804 183.475 54.3153 183.841 54.0135C184.199 53.7116 184.662 53.4729 185.231 53.3044C185.8 53.136 186.495 53.0517 187.302 53.0517H194.036C194.851 53.0517 195.539 53.136 196.108 53.3044C196.677 53.4729 197.14 53.7116 197.498 54.0135C197.856 54.3153 198.116 54.6804 198.285 55.1016C198.446 55.5228 198.53 55.9932 198.53 56.5056V62.9011C201.051 60.2685 201.072 56.3793 201.072 56.3793V46.3404L199.12 46.2281L195.335 42.7671H201.065V42.6197L194.774 42.2617L191.263 39.0534H201.065V38.906L190.434 38.2952L187.197 35.3327H201.065V35.1853L186.088 34.3218L183.124 31.612H201.065V31.4646L181.748 30.3554L178.518 46.5089L165.38 51.5073L178.995 33.9216L176.748 31.619H180.779L181.755 30.3624L175.154 29.9833L173.125 27.9053H201.079V27.7579L171.313 26.045L166.974 33.1003L164.39 30.2711L164.242 30.0465L165.345 29.4217L163.519 29.3164L162.227 27.9053H168.02L171.306 26.045L159.931 25.3921L158.829 24.1846H201.072V24.0372L156.343 21.4678L155.43 20.4709H201.072V20.3235L152.762 17.5505L152.038 16.7572H201.072V16.4203L140.614 12.847H201.072V12.6996L141.449 9.12627H201.072V8.97885L142.285 5.40556H201.072V5.25814L143.121 1.68485H201.072V2.82231e-06H201.086ZM168.666 58.6468H175.808C176.447 58.6468 176.889 58.5556 177.128 58.3801C177.373 58.2045 177.493 57.9167 177.493 57.5236V56.281C177.493 55.8879 177.373 55.6 177.128 55.4245C176.882 55.249 176.447 55.1578 175.808 55.1578H168.666C168.027 55.1578 167.585 55.249 167.346 55.4245C167.1 55.6 166.981 55.8879 166.981 56.281V57.5236C166.981 57.9167 167.1 58.2045 167.346 58.3801C167.592 58.5556 168.034 58.6468 168.666 58.6468ZM194.05 55.1648H187.316C186.123 55.1648 185.526 55.6071 185.526 56.4846V63.926C185.526 64.8106 186.123 65.2458 187.316 65.2458H193.18C194.057 65.1826 194.83 65.0212 195.525 64.7895C195.736 64.5719 195.841 64.2911 195.841 63.919V56.4776C195.841 55.6 195.244 55.1578 194.05 55.1578V55.1648Z" fill="white"/>
<path d="M0 53.1149H14.8864V54.9121H8.67907V65.2809H6.37589V54.9121H0V53.1149ZM16.4242 65.2809H28.9443V63.4838H18.7274V59.749H28.4247V57.9519H18.7274V54.9121H28.9443V53.1149H16.4242V65.288V65.2809ZM45.0104 62.157L32.8906 53.1149H30.9034V65.288H32.9117V55.8177L45.8952 65.288H47.0187V53.1149H45.0104V62.157ZM49.2657 65.2809H61.7857V63.4838H51.5689V59.749H61.2661V57.9519H51.5689V54.9121H61.7857V53.1149H49.2657V65.288V65.2809ZM63.8221 65.2809H66.1253V53.1079H63.8221V65.2809ZM80.127 62.6905C80.127 63.224 79.4458 63.4838 78.0836 63.4838H72.7048C71.3426 63.4838 70.6614 63.21 70.6614 62.6554V55.7405C70.6614 55.1859 71.3426 54.9121 72.7048 54.9121H82.2335V53.1149H72.7048C69.8118 53.1149 68.3653 53.9925 68.3653 55.7405V62.6554C68.3653 64.4104 69.8118 65.2809 72.7048 65.2809H78.0836C80.9766 65.2809 82.4231 64.4175 82.4231 62.6905V58.6469H80.1199V62.6905H80.127ZM96.811 57.9519H86.854V53.1079H84.5508V65.2809H86.854V59.749H96.811V65.2809H99.1142V53.1079H96.811V57.9519ZM100.638 54.9121H107.021V65.2809H109.324V54.9121H115.531V53.1149H100.645V54.9121H100.638ZM130.909 53.1149L124.892 58.682L118.874 53.1149H115.932L123.747 60.3387V65.2809H126.05V60.3387L133.816 53.1149H130.909Z" fill="white"/>
</g>
<defs>
<clipPath id="clip0_48_47">
<rect width="209" height="74" fill="white"/>
</clipPath>
</defs>
</svg>
