<svg width="207" height="35" viewBox="0 0 207 35" fill="none" xmlns="http://www.w3.org/2000/svg">
<g clip-path="url(#clip0_65_224)">
<path d="M92.1149 14.0734H56.8488V6.96042H92.054C93.9566 6.96042 95.5091 5.41877 95.5091 3.51079C95.5091 1.60281 93.9566 0.0458984 92.0388 0.0458984H53.3937C51.4911 0.0458984 49.9539 1.58755 49.9539 3.49553V17.523C49.9539 18.4388 50.3039 19.3241 50.9584 19.9652C51.6129 20.6063 52.4805 20.9726 53.3937 20.9726H88.6598V28.0703H53.4089C51.5064 28.0703 49.9691 29.612 49.9691 31.5199C49.9691 33.4279 51.5064 34.9696 53.4089 34.9696H92.1149C94.0175 34.9696 95.57 33.4127 95.57 31.5047V17.4925C95.57 15.5845 94.0175 14.0428 92.1149 14.0428" fill="white"/>
<mask id="mask0_65_224" style="mask-type:luminance" maskUnits="userSpaceOnUse" x="0" y="0" width="207" height="35">
<path d="M207 0H0V35H207V0Z" fill="white"/>
</mask>
<g mask="url(#mask0_65_224)">
<path d="M42.0849 28.0702H6.89493V20.9573H42.0545C43.9571 20.9573 45.4943 19.4156 45.4943 17.5076V3.44963C45.4943 2.5338 45.129 1.6485 44.4898 1.00741C43.8505 0.351068 42.9677 0 42.0545 0H3.45507C1.53728 0 0 1.57218 0 3.48016V31.5504C0 32.4662 0.365294 33.3362 1.00456 33.9926C1.64382 34.6337 2.52662 35 3.43985 35H42.0697C43.9723 34.9847 45.5248 33.4278 45.5096 31.5198C45.5096 29.6119 43.9723 28.0702 42.0697 28.0702M6.89493 6.92979H38.6146V14.0427H6.89493V6.92979Z" fill="white"/>
<path d="M146.3 2.25895C145.631 0.473081 143.637 -0.427486 141.856 0.259387L107.625 13.2489V3.48006C107.625 1.57208 106.088 0.0304297 104.185 0.0304297C102.282 0.0304297 100.73 1.57208 100.73 3.48006V31.535C100.73 33.443 102.282 34.9846 104.185 34.9846C106.088 34.9846 107.625 33.443 107.625 31.535V21.8425L141.506 34.7557C141.902 34.9083 142.313 34.9846 142.724 34.9846C144.109 34.9846 145.418 34.1299 145.95 32.7561C146.62 30.9702 145.737 28.9707 143.956 28.2991L115.737 17.5381L144.291 6.70073C146.072 6.02912 146.97 4.02956 146.3 2.24369" fill="white"/>
</g>
<path d="M201.049 6.62452V2.48802C201.049 2.48802 201.049 2.16748 201.353 2.16748H203.819C203.819 2.16748 204.108 2.16748 204.108 2.47276V4.42653C204.108 4.42653 204.108 4.73181 203.804 4.73181H202.738L204.032 6.44136C204.032 6.44136 204.215 6.65505 204.017 6.85348C203.834 7.02138 203.621 6.91454 203.53 6.80769C203.454 6.71611 201.871 4.59443 201.871 4.59443C201.871 4.59443 201.764 4.44179 201.871 4.25863C201.962 4.09073 202.221 4.10599 202.221 4.10599H203.499V2.7933H201.642V6.63979C201.642 6.63979 201.642 6.9298 201.338 6.94506C201.049 6.94506 201.033 6.62452 201.033 6.62452" fill="white"/>
<path d="M202.54 0C200.075 0 198.081 1.99956 198.081 4.47231C198.081 6.94505 200.075 8.94461 202.54 8.94461C205.006 8.94461 207 6.94505 207 4.47231C207 1.99956 205.006 0 202.54 0ZM202.54 8.41038C200.379 8.41038 198.629 6.65504 198.629 4.47231C198.629 2.28958 200.379 0.549498 202.54 0.549498C204.702 0.549498 206.467 2.30484 206.467 4.47231C206.467 6.63977 204.717 8.41038 202.54 8.41038Z" fill="white"/>
<path d="M193.834 1.00741C193.195 0.351068 192.312 0 191.399 0H152.769C150.866 0.0152638 149.329 1.55691 149.329 3.48016C149.329 5.4034 150.866 6.92979 152.769 6.92979H187.959V14.1191H152.799C150.897 14.1191 149.36 15.676 149.36 17.584V31.5504C149.36 32.4662 149.725 33.3515 150.364 33.9926C151.003 34.6489 151.886 35 152.799 35H191.414C193.317 34.9847 194.854 33.4431 194.854 31.5198V3.46489C194.854 2.54906 194.489 1.66376 193.849 1.02268M187.959 28.0702H156.239V21.0336H187.959V28.0702Z" fill="white"/>
</g>
<defs>
<clipPath id="clip0_65_224">
<rect width="207" height="35" fill="white"/>
</clipPath>
</defs>
</svg>
