<svg width="224" height="59" viewBox="0 0 224 59" fill="none" xmlns="http://www.w3.org/2000/svg">
<g clip-path="url(#clip0_64_168)">
<g style="mix-blend-mode:multiply">
<path d="M132.899 19.2882C130.513 19.3387 128.59 17.3897 128.597 14.9991C128.565 12.6528 130.468 10.7227 132.842 10.6911C134.009 10.7164 135.101 11.202 135.868 11.9337L139.707 8.09877C137.962 6.28222 135.519 5.2541 132.797 5.26672C127.435 5.26672 123.127 9.65671 123.139 15.037C123.152 20.3983 127.524 24.7694 132.911 24.7568C135.615 24.7442 138.007 23.653 139.739 21.849L135.9 18.0141C135.139 18.7899 134.054 19.3197 132.892 19.2945" fill="white"/>
<path d="M99.2298 24.5043L106.007 24.4665L102.085 19.2376C103.976 17.8878 105.233 15.6865 105.22 13.1509C105.15 9.05102 101.844 5.74591 97.783 5.77114L89.5466 5.82791L89.6291 24.5169H95.0862L95.0989 20.6126H96.2601L99.2234 24.5043H99.2298ZM95.0862 11.2145L97.7893 11.2523C98.8871 11.2082 99.7374 12.0471 99.7374 13.1572C99.7374 14.2547 98.9061 15.1188 97.8084 15.0999H95.0989L95.0925 11.2145H95.0862Z" fill="white"/>
<path d="M114.167 5.2981C108.767 5.2981 104.389 9.66917 104.446 15.0936C104.452 20.5243 108.792 24.8638 114.218 24.8386C119.592 24.8386 123.932 20.3982 123.888 15.0179C123.901 9.64394 119.497 5.31702 114.167 5.2981ZM114.199 19.3764C111.832 19.3764 109.896 17.4463 109.896 15.1125C109.839 12.6841 111.781 10.7982 114.116 10.7351C116.502 10.773 118.456 12.6715 118.45 15.0873C118.418 17.3958 116.508 19.3133 114.199 19.3764Z" fill="white"/>
<path d="M158.528 5.54415L151.719 5.53784L144.53 15.2135V5.56938H139.066L139.136 24.3152L144.53 24.2584L144.587 24.3404L148.191 19.4836L151.783 24.3152L158.61 24.2395L151.554 14.8729L158.528 5.54415Z" fill="white"/>
<path d="M197.14 42.0203C197.298 42.1465 197.26 42.3925 197.171 42.5628L181.574 58.0854C180.445 59.2964 178.509 59.3091 177.348 58.1233L164.962 45.8174C164.892 45.7102 164.822 45.666 164.848 45.5966L164.74 5.35504C164.734 5.19735 164.943 5.09012 165.108 5.22258L175.267 15.365C175.343 15.4344 175.407 15.5542 175.388 15.6425L175.445 40.5507C175.432 40.6579 175.483 40.7904 175.546 40.8156L178.408 43.6539C178.573 43.8053 178.82 43.8116 178.916 43.6792L188.548 34.0035C188.7 33.8963 188.929 33.8774 189.087 34.0161L197.127 42.0266L197.14 42.0203Z" fill="white"/>
<path d="M223.981 42.5564C224 42.4681 223.911 42.3734 223.848 42.3041L213.612 32.2689C211.69 30.465 211.607 28.0618 213.289 26.403L222.978 16.6264C224.165 15.4532 224.165 13.5862 222.959 12.4193L210.624 0.113452C210.471 0.0377627 210.421 -0.0253119 210.326 0.0125329L170.019 0.0503776C169.823 0.11976 169.772 0.290061 169.835 0.460363L180.115 10.5586C180.185 10.6343 180.248 10.6469 180.337 10.6658L205.338 10.5586C205.44 10.5901 205.541 10.6469 205.554 10.6785L208.454 13.561C208.606 13.6745 208.593 13.9016 208.492 14.0466L199.602 22.9528C196.169 26.5796 197.019 32.1427 200.439 35.5677L223.74 58.6467C223.841 58.7602 223.987 58.6656 223.994 58.5332L223.981 42.5501V42.5564Z" fill="white"/>
<path d="M148.559 40.3234L148.572 38.5637L154.086 38.5763L154.143 33.3474L148.54 33.3285L148.515 32.1364L158.648 32.1111L158.617 26.8696L142.385 26.9327V29.1214C140.621 27.7464 138.356 26.9012 135.856 26.8949C131.255 26.8949 127.372 29.872 126.211 33.8268L126.16 27.0021L120.1 27.0399L120.176 36.4002L113.317 27.0778H108.558L92.6623 27.1219L92.7575 44.0827H91.1013L91.0506 27.1535L84.9336 27.1787L85.0097 45.4199L81.1136 40.6262C83.1378 39.2575 84.4577 37.0562 84.4323 34.6026C84.4323 30.4901 80.8471 27.1976 76.4942 27.2292L67.7501 27.2607L51.3789 27.3112L51.4234 32.1301C50.2431 29.3169 47.375 27.3238 43.9738 27.3301L35.2616 27.3868L28.5608 27.3995L25.9084 31.2912L23.3004 27.4562H15.7557L15.7303 27.5256L0 27.5824L0.0634543 46.1957L16.7012 46.1389L22.8753 46.1578L25.864 41.6165L28.878 46.1011L36.3847 46.0822V46.0632L41.1628 46.0254L41.1311 42.1274L42.3811 42.0895C46.493 42.1337 48.5806 40.7713 48.5806 40.7713C49.8624 39.9135 50.8269 38.6898 51.4234 37.3526L51.4424 46.0065L68.0294 45.9371L68.0865 45.8677H73.6768L73.6577 41.9886L74.8888 42.0012L78.0297 45.8551L84.978 45.8109L84.997 45.8614L90.4033 45.874H91.1077L92.7638 45.8425L94.2106 45.8614L109.37 45.7731L114.744 45.7226L114.687 36.2804L121.483 45.7289L126.236 45.6974L126.217 38.8286C127.404 42.8527 131.338 45.6722 135.925 45.6596C138.426 45.6533 140.653 44.8017 142.461 43.4078V45.6659L159.067 45.5586L159.016 40.2919L148.553 40.3298L148.559 40.3234ZM16.7012 44.3728L16.6758 40.9353H6.19948L6.21218 39.2007L11.7581 39.1629L11.7137 33.9151H6.15507V32.7545L16.3204 32.704L16.2824 28.251L22.1075 36.4381L16.7012 44.3665V44.3728ZM29.6903 36.4381L35.2806 28.4465L35.3314 44.5368L29.6903 36.4381ZM44.0182 36.6588L41.1311 36.684L41.112 32.8302L44.0182 32.7545C45.1477 32.7608 46.0932 33.6312 46.0742 34.735C46.1313 35.7821 45.1731 36.6399 44.0182 36.6525V36.6588ZM57.5594 38.9484H63.1434V33.6628L57.553 33.7069V32.4896L67.7819 32.4707L67.8326 40.6767L57.6038 40.6893L57.5594 38.9421V38.9484ZM76.5449 36.5327L73.626 36.52V32.6662L76.5132 32.6599C77.6934 32.6473 78.5818 33.4735 78.6262 34.5647C78.5945 35.6433 77.6681 36.539 76.5386 36.5327H76.5449ZM98.8681 38.7655L104.446 38.7403L104.408 33.5114L98.8618 33.5429L98.7983 32.376L108.558 32.294L108.589 40.5253L98.8554 40.5694V38.7655H98.8681ZM139.035 39.2007C138.273 39.9261 137.118 40.4496 135.881 40.4054C133.47 40.437 131.433 38.57 131.439 36.3561C131.439 34.0791 133.444 32.1679 135.875 32.149C137.08 32.1174 138.229 32.5842 138.99 33.3285L142.379 30.1558L142.449 42.3292L139.028 39.207L139.035 39.2007Z" fill="white"/>
</g>
</g>
<defs>
<clipPath id="clip0_64_168">
<rect width="224" height="59" fill="white"/>
</clipPath>
</defs>
</svg>
